<svg id="visual" viewBox="0 0 900 600" width="900" height="600" xmlns="http://www.w3.org/2000/svg" xmlns:xlink="http://www.w3.org/1999/xlink" version="1.1"><path d="M0 13L75 22C150 31 300 49 450 57C600 65 750 63 825 62L900 61L900 0L825 0C750 0 600 0 450 0C300 0 150 0 75 0L0 0Z" fill="#2b1842"></path><path d="M0 193L75 191C150 189 300 185 450 203C600 221 750 261 825 281L900 301L900 59L825 60C750 61 600 63 450 55C300 47 150 29 75 20L0 11Z" fill="#2f1b47"></path><path d="M0 259L75 259C150 259 300 259 450 274C600 289 750 319 825 334L900 349L900 299L825 279C750 259 600 219 450 201C300 183 150 187 75 189L0 191Z" fill="#341f4d"></path><path d="M0 385L75 369C150 353 300 321 450 320C600 319 750 349 825 364L900 379L900 347L825 332C750 317 600 287 450 272C300 257 150 257 75 257L0 257Z" fill="#382252"></path><path d="M0 469L75 466C150 463 300 457 450 450C600 443 750 435 825 431L900 427L900 377L825 362C750 347 600 317 450 318C300 319 150 351 75 367L0 383Z" fill="#3c2558"></path><path d="M0 517L75 509C150 501 300 485 450 474C600 463 750 457 825 454L900 451L900 425L825 429C750 433 600 441 450 448C300 455 150 461 75 464L0 467Z" fill="#41295d"></path><path d="M0 601L75 601C150 601 300 601 450 601C600 601 750 601 825 601L900 601L900 449L825 452C750 455 600 461 450 472C300 483 150 499 75 507L0 515Z" fill="#452c63"></path></svg>