<svg id="visual" viewBox="0 0 900 600" width="900" height="600" xmlns="http://www.w3.org/2000/svg" xmlns:xlink="http://www.w3.org/1999/xlink" version="1.1"><path d="M0 13L75 19C150 25 300 37 450 46C600 55 750 61 825 64L900 67L900 0L825 0C750 0 600 0 450 0C300 0 150 0 75 0L0 0Z" fill="#452c63"></path><path d="M0 37L75 41C150 45 300 53 450 66C600 79 750 97 825 106L900 115L900 65L825 62C750 59 600 53 450 44C300 35 150 23 75 17L0 11Z" fill="#41295d"></path><path d="M0 163L75 172C150 181 300 199 450 217C600 235 750 253 825 262L900 271L900 113L825 104C750 95 600 77 450 64C300 51 150 43 75 39L0 35Z" fill="#3c2558"></path><path d="M0 463L75 456C150 449 300 435 450 419C600 403 750 385 825 376L900 367L900 269L825 260C750 251 600 233 450 215C300 197 150 179 75 170L0 161Z" fill="#382252"></path><path d="M0 499L75 490C150 481 300 463 450 466C600 469 750 493 825 505L900 517L900 365L825 374C750 383 600 401 450 417C300 433 150 447 75 454L0 461Z" fill="#341f4d"></path><path d="M0 511L75 517C150 523 300 535 450 538C600 541 750 535 825 532L900 529L900 515L825 503C750 491 600 467 450 464C300 461 150 479 75 488L0 497Z" fill="#2f1b47"></path><path d="M0 601L75 601C150 601 300 601 450 601C600 601 750 601 825 601L900 601L900 527L825 530C750 533 600 539 450 536C300 533 150 521 75 515L0 509Z" fill="#2b1842"></path></svg>