<svg id="visual" viewBox="0 0 900 600" width="900" height="600" xmlns="http://www.w3.org/2000/svg" xmlns:xlink="http://www.w3.org/1999/xlink" version="1.1"><path d="M0 235L75 236C150 237 300 239 450 261C600 283 750 325 825 346L900 367L900 0L825 0C750 0 600 0 450 0C300 0 150 0 75 0L0 0Z" fill="#452c63"></path><path d="M0 487L75 464C150 441 300 395 450 394C600 393 750 437 825 459L900 481L900 365L825 344C750 323 600 281 450 259C300 237 150 235 75 234L0 233Z" fill="#382252"></path><path d="M0 601L75 601C150 601 300 601 450 601C600 601 750 601 825 601L900 601L900 479L825 457C750 435 600 391 450 392C300 393 150 439 75 462L0 485Z" fill="#2b1842"></path></svg>