<svg id="visual" viewBox="0 0 900 600" width="900" height="600" xmlns="http://www.w3.org/2000/svg" xmlns:xlink="http://www.w3.org/1999/xlink" version="1.1"><path d="M0 247L50 217C100 187 200 127 300 98C400 69 500 71 600 102C700 133 800 193 850 223L900 253L900 0L850 0C800 0 700 0 600 0C500 0 400 0 300 0C200 0 100 0 50 0L0 0Z" fill="#6a5087"></path><path d="M0 325L50 347C100 369 200 413 300 449C400 485 500 513 600 504C700 495 800 449 850 426L900 403L900 251L850 221C800 191 700 131 600 100C500 69 400 67 300 96C200 125 100 185 50 215L0 245Z" fill="#452c63"></path><path d="M0 601L50 601C100 601 200 601 300 601C400 601 500 601 600 601C700 601 800 601 850 601L900 601L900 401L850 424C800 447 700 493 600 502C500 511 400 483 300 447C200 411 100 367 50 345L0 323Z" fill="#312249"></path></svg>