<svg id="visual" viewBox="0 0 900 600" width="900" height="600" xmlns="http://www.w3.org/2000/svg" xmlns:xlink="http://www.w3.org/1999/xlink" version="1.1"><path d="M0 157L75 136C150 115 300 73 450 75C600 77 750 123 825 146L900 169L900 0L825 0C750 0 600 0 450 0C300 0 150 0 75 0L0 0Z" fill="#2b1842"></path><path d="M0 223L75 200C150 177 300 131 450 124C600 117 750 149 825 165L900 181L900 167L825 144C750 121 600 75 450 73C300 71 150 113 75 134L0 155Z" fill="#2f1b47"></path><path d="M0 343L75 310C150 277 300 211 450 220C600 229 750 313 825 355L900 397L900 179L825 163C750 147 600 115 450 122C300 129 150 175 75 198L0 221Z" fill="#341f4d"></path><path d="M0 379L75 343C150 307 300 235 450 249C600 263 750 363 825 413L900 463L900 395L825 353C750 311 600 227 450 218C300 209 150 275 75 308L0 341Z" fill="#382252"></path><path d="M0 445L75 418C150 391 300 337 450 345C600 353 750 423 825 458L900 493L900 461L825 411C750 361 600 261 450 247C300 233 150 305 75 341L0 377Z" fill="#3c2558"></path><path d="M0 511L75 475C150 439 300 367 450 368C600 369 750 443 825 480L900 517L900 491L825 456C750 421 600 351 450 343C300 335 150 389 75 416L0 443Z" fill="#41295d"></path><path d="M0 601L75 601C150 601 300 601 450 601C600 601 750 601 825 601L900 601L900 515L825 478C750 441 600 367 450 366C300 365 150 437 75 473L0 509Z" fill="#452c63"></path></svg>