<svg id="visual" viewBox="0 0 900 600" width="900" height="600" xmlns="http://www.w3.org/2000/svg" xmlns:xlink="http://www.w3.org/1999/xlink" version="1.1"><path d="M0 31L75 36C150 41 300 51 450 55C600 59 750 57 825 56L900 55L900 0L825 0C750 0 600 0 450 0C300 0 150 0 75 0L0 0Z" fill="#2b1842"></path><path d="M0 43L75 60C150 77 300 111 450 115C600 119 750 93 825 80L900 67L900 53L825 54C750 55 600 57 450 53C300 49 150 39 75 34L0 29Z" fill="#2f1b47"></path><path d="M0 67L75 104C150 141 300 215 450 236C600 257 750 225 825 209L900 193L900 65L825 78C750 91 600 117 450 113C300 109 150 75 75 58L0 41Z" fill="#341f4d"></path><path d="M0 115L75 147C150 179 300 243 450 270C600 297 750 287 825 282L900 277L900 191L825 207C750 223 600 255 450 234C300 213 150 139 75 102L0 65Z" fill="#382252"></path><path d="M0 241L75 267C150 293 300 345 450 354C600 363 750 329 825 312L900 295L900 275L825 280C750 285 600 295 450 268C300 241 150 177 75 145L0 113Z" fill="#3c2558"></path><path d="M0 493L75 509C150 525 300 557 450 544C600 531 750 473 825 444L900 415L900 293L825 310C750 327 600 361 450 352C300 343 150 291 75 265L0 239Z" fill="#41295d"></path><path d="M0 601L75 601C150 601 300 601 450 601C600 601 750 601 825 601L900 601L900 413L825 442C750 471 600 529 450 542C300 555 150 523 75 507L0 491Z" fill="#452c63"></path></svg>