<svg id="visual" viewBox="0 0 900 600" width="900" height="600" xmlns="http://www.w3.org/2000/svg" xmlns:xlink="http://www.w3.org/1999/xlink" version="1.1"><path d="M0 49L75 53C150 57 300 65 450 75C600 85 750 97 825 103L900 109L900 0L825 0C750 0 600 0 450 0C300 0 150 0 75 0L0 0Z" fill="#452c63"></path><path d="M0 85L75 88C150 91 300 97 450 104C600 111 750 119 825 123L900 127L900 107L825 101C750 95 600 83 450 73C300 63 150 55 75 51L0 47Z" fill="#41295d"></path><path d="M0 157L75 167C150 177 300 197 450 206C600 215 750 213 825 212L900 211L900 125L825 121C750 117 600 109 450 102C300 95 150 89 75 86L0 83Z" fill="#3c2558"></path><path d="M0 307L75 298C150 289 300 271 450 286C600 301 750 349 825 373L900 397L900 209L825 210C750 211 600 213 450 204C300 195 150 175 75 165L0 155Z" fill="#382252"></path><path d="M0 379L75 370C150 361 300 343 450 358C600 373 750 421 825 445L900 469L900 395L825 371C750 347 600 299 450 284C300 269 150 287 75 296L0 305Z" fill="#341f4d"></path><path d="M0 481L75 474C150 467 300 453 450 468C600 483 750 527 825 549L900 571L900 467L825 443C750 419 600 371 450 356C300 341 150 359 75 368L0 377Z" fill="#2f1b47"></path><path d="M0 601L75 601C150 601 300 601 450 601C600 601 750 601 825 601L900 601L900 569L825 547C750 525 600 481 450 466C300 451 150 465 75 472L0 479Z" fill="#2b1842"></path></svg>